<svg xmlns="http://www.w3.org/2000/svg" version="1.1" xmlns:xlink="http://www.w3.org/1999/xlink" xmlns:svgjs="http://svgjs.dev/svgjs" width="1440" height="560" preserveAspectRatio="none" viewBox="0 0 1440 560"><g mask="url(&quot;#SvgjsMask1141&quot;)" fill="none"><rect width="1440" height="560" x="0" y="0" fill="rgba(250, 249, 249, 1)"></rect><path d="M334.73 293.51L442.99 356.01L442.99 481.01L334.73 543.51L226.48 481.01L226.48 356.01zM659.5 481.01L767.76 543.51L767.76 668.51L659.5 731.01L551.25 668.51L551.25 543.51zM767.76 -81.49L876.01 -18.99L876.01 106.01L767.76 168.51L659.5 106.01L659.5 -18.99zM1417.29 293.51L1525.55 356.01L1525.55 481.01L1417.29 543.51L1309.04 481.01L1309.04 356.01zM1525.55 481.01L1633.81 543.51L1633.81 668.51L1525.55 731.01L1417.29 668.51L1417.29 543.51z" stroke="rgba(190, 227, 219, 1)" stroke-width="2"></path><path d="M322.23 293.51 a12.5 12.5 0 1 0 25 0 a12.5 12.5 0 1 0 -25 0zM430.49 356.01 a12.5 12.5 0 1 0 25 0 a12.5 12.5 0 1 0 -25 0zM430.49 481.01 a12.5 12.5 0 1 0 25 0 a12.5 12.5 0 1 0 -25 0zM322.23 543.51 a12.5 12.5 0 1 0 25 0 a12.5 12.5 0 1 0 -25 0zM213.98 481.01 a12.5 12.5 0 1 0 25 0 a12.5 12.5 0 1 0 -25 0zM213.98 356.01 a12.5 12.5 0 1 0 25 0 a12.5 12.5 0 1 0 -25 0zM647 481.01 a12.5 12.5 0 1 0 25 0 a12.5 12.5 0 1 0 -25 0zM755.26 543.51 a12.5 12.5 0 1 0 25 0 a12.5 12.5 0 1 0 -25 0zM755.26 668.51 a12.5 12.5 0 1 0 25 0 a12.5 12.5 0 1 0 -25 0zM647 731.01 a12.5 12.5 0 1 0 25 0 a12.5 12.5 0 1 0 -25 0zM538.75 668.51 a12.5 12.5 0 1 0 25 0 a12.5 12.5 0 1 0 -25 0zM538.75 543.51 a12.5 12.5 0 1 0 25 0 a12.5 12.5 0 1 0 -25 0zM755.26 -81.49 a12.5 12.5 0 1 0 25 0 a12.5 12.5 0 1 0 -25 0zM863.51 -18.99 a12.5 12.5 0 1 0 25 0 a12.5 12.5 0 1 0 -25 0zM863.51 106.01 a12.5 12.5 0 1 0 25 0 a12.5 12.5 0 1 0 -25 0zM755.26 168.51 a12.5 12.5 0 1 0 25 0 a12.5 12.5 0 1 0 -25 0zM647 106.01 a12.5 12.5 0 1 0 25 0 a12.5 12.5 0 1 0 -25 0zM647 -18.99 a12.5 12.5 0 1 0 25 0 a12.5 12.5 0 1 0 -25 0zM1404.79 293.51 a12.5 12.5 0 1 0 25 0 a12.5 12.5 0 1 0 -25 0zM1513.05 356.01 a12.5 12.5 0 1 0 25 0 a12.5 12.5 0 1 0 -25 0zM1513.05 481.01 a12.5 12.5 0 1 0 25 0 a12.5 12.5 0 1 0 -25 0zM1404.79 543.51 a12.5 12.5 0 1 0 25 0 a12.5 12.5 0 1 0 -25 0zM1296.54 481.01 a12.5 12.5 0 1 0 25 0 a12.5 12.5 0 1 0 -25 0zM1296.54 356.01 a12.5 12.5 0 1 0 25 0 a12.5 12.5 0 1 0 -25 0zM1621.31 543.51 a12.5 12.5 0 1 0 25 0 a12.5 12.5 0 1 0 -25 0zM1621.31 668.51 a12.5 12.5 0 1 0 25 0 a12.5 12.5 0 1 0 -25 0zM1513.05 731.01 a12.5 12.5 0 1 0 25 0 a12.5 12.5 0 1 0 -25 0zM1404.79 668.51 a12.5 12.5 0 1 0 25 0 a12.5 12.5 0 1 0 -25 0z" fill="rgba(190, 227, 219, 1)"></path><path d="M138.48 -20.38L203.43 17.12L203.43 92.12L138.48 129.62L73.52 92.12L73.52 17.12zM138.48 204.62L203.43 242.12L203.43 317.12L138.48 354.62L73.52 317.12L73.52 242.12zM268.38 204.62L333.34 242.12L333.34 317.12L268.38 354.62L203.43 317.12L203.43 242.12zM398.29 -20.38L463.25 17.12L463.25 92.12L398.29 129.62L333.34 92.12L333.34 17.12zM463.25 92.12L528.2 129.62L528.2 204.62L463.25 242.12L398.29 204.62L398.29 129.62zM593.15 92.12L658.11 129.62L658.11 204.62L593.15 242.12L528.2 204.62L528.2 129.62zM593.15 542.12L658.11 579.62L658.11 654.62L593.15 692.12L528.2 654.62L528.2 579.62zM852.97 92.12L917.92 129.62L917.92 204.62L852.97 242.12L788.01 204.62L788.01 129.62zM852.97 542.12L917.92 579.62L917.92 654.62L852.97 692.12L788.01 654.62L788.01 579.62zM982.88 317.12L1047.83 354.62L1047.83 429.62L982.88 467.12L917.92 429.62L917.92 354.62zM917.92 429.62L982.88 467.12L982.88 542.12L917.92 579.62L852.97 542.12L852.97 467.12zM982.88 542.12L1047.83 579.62L1047.83 654.62L982.88 692.12L917.92 654.62L917.92 579.62zM1047.83 204.62L1112.78 242.12L1112.78 317.12L1047.83 354.62L982.88 317.12L982.88 242.12zM1242.69 317.12L1307.64 354.62L1307.64 429.62L1242.69 467.12L1177.74 429.62L1177.74 354.62zM1372.6 92.12L1437.55 129.62L1437.55 204.62L1372.6 242.12L1307.64 204.62L1307.64 129.62zM1372.6 317.12L1437.55 354.62L1437.55 429.62L1372.6 467.12L1307.64 429.62L1307.64 354.62zM1372.6 542.12L1437.55 579.62L1437.55 654.62L1372.6 692.12L1307.64 654.62L1307.64 579.62zM1502.51 317.12L1567.46 354.62L1567.46 429.62L1502.51 467.12L1437.55 429.62L1437.55 354.62z" stroke="rgba(85, 91, 110, 1)" stroke-width="2"></path></g><defs><mask id="SvgjsMask1141"><rect width="1440" height="560" fill="#ffffff"></rect></mask></defs></svg>